<?xml version="1.0" encoding="UTF-8"?>
<!DOCTYPE svg PUBLIC "-//W3C//DTD SVG 1.1//EN" "http://www.w3.org/Graphics/SVG/1.1/DTD/svg11.dtd">
<svg xmlns="http://www.w3.org/2000/svg" version="1.1" width="306px" height="300px" style="shape-rendering:geometricPrecision; text-rendering:geometricPrecision; image-rendering:optimizeQuality; fill-rule:evenodd; clip-rule:evenodd" xmlns:xlink="http://www.w3.org/1999/xlink">
<g><path style="opacity:0.004" fill="#000000" d="M 140.5,23.5 C 141.833,24.1667 141.833,24.1667 140.5,23.5 Z"/></g>
<g><path style="opacity:1" fill="#765ea4" d="M 171.5,25.5 C 173.808,27.4707 176.142,29.4707 178.5,31.5C 178.427,33.0269 179.094,34.0269 180.5,34.5C 180.328,35.4916 180.662,36.1583 181.5,36.5C 181.328,37.4916 181.662,38.1583 182.5,38.5C 185.167,45.8333 185.167,53.1667 182.5,60.5C 180.917,62.6626 179.584,64.9959 178.5,67.5C 177.833,67.5 177.5,67.8333 177.5,68.5C 176.833,68.5 176.5,68.8333 176.5,69.5C 175.833,69.5 175.5,69.8333 175.5,70.5C 174.5,70.8333 173.833,71.5 173.5,72.5C 172.508,72.3284 171.842,72.6618 171.5,73.5C 170.833,73.5 170.5,73.8333 170.5,74.5C 169.508,74.3284 168.842,74.6618 168.5,75.5C 159.363,78.4015 150.363,78.0681 141.5,74.5C 141.027,73.0937 140.027,72.427 138.5,72.5C 136.471,70.1415 134.471,67.8082 132.5,65.5C 132.068,64.2905 131.401,63.2905 130.5,62.5C 127.179,55.277 126.845,47.9436 129.5,40.5C 129.291,39.914 128.957,39.414 128.5,39C 129.756,38.5831 130.423,37.7498 130.5,36.5C 133.041,32.7482 136.041,29.4148 139.5,26.5C 149.5,20.2861 160.167,19.9527 171.5,25.5 Z"/></g>
<g><path style="opacity:0.004" fill="#000000" d="M 171.5,24.5 C 170.833,23.1667 170.833,23.1667 171.5,24.5 Z"/></g>
<g><path style="opacity:0.004" fill="#000000" d="M 171.5,24.5 C 172.833,25.1667 172.833,25.1667 171.5,24.5 Z"/></g>
<g><path style="opacity:0.004" fill="#000000" d="M 139.5,26.5 C 138.833,25.1667 138.833,25.1667 139.5,26.5 Z"/></g>
<g><path style="opacity:0.004" fill="#000000" d="M 173.5,25.5 C 174.833,26.1667 174.833,26.1667 173.5,25.5 Z"/></g>
<g><path style="opacity:0.004" fill="#000000" d="M 132.5,30.5 C 133.833,31.1667 133.833,31.1667 132.5,30.5 Z"/></g>
<g><path style="opacity:0.004" fill="#000000" d="M 178.5,30.5 C 179.833,31.1667 179.833,31.1667 178.5,30.5 Z"/></g>
<g><path style="opacity:0.004" fill="#000000" d="M 180.5,33.5 C 181.833,34.1667 181.833,34.1667 180.5,33.5 Z"/></g>
<g><path style="opacity:0.004" fill="#000000" d="M 130.5,36.5 C 129.833,35.1667 129.833,35.1667 130.5,36.5 Z"/></g>
<g><path style="opacity:0.004" fill="#000000" d="M 181.5,35.5 C 182.833,36.1667 182.833,36.1667 181.5,35.5 Z"/></g>
<g><path style="opacity:0.004" fill="#000000" d="M 182.5,37.5 C 183.833,38.1667 183.833,38.1667 182.5,37.5 Z"/></g>
<g><path style="opacity:0.004" fill="#000000" d="M 182.5,60.5 C 183.833,61.1667 183.833,61.1667 182.5,60.5 Z"/></g>
<g><path style="opacity:0.004" fill="#000000" d="M 130.5,62.5 C 129.833,63.1667 129.833,63.1667 130.5,62.5 Z"/></g>
<g><path style="opacity:0.004" fill="#000000" d="M 181.5,63.5 C 182.833,64.1667 182.833,64.1667 181.5,63.5 Z"/></g>
<g><path style="opacity:0.004" fill="#000000" d="M 132.5,65.5 C 131.833,66.1667 131.833,66.1667 132.5,65.5 Z"/></g>
<g><path style="opacity:0.004" fill="#000000" d="M 179.5,66.5 C 180.833,67.1667 180.833,67.1667 179.5,66.5 Z"/></g>
<g><path style="opacity:0.004" fill="#000000" d="M 178.5,67.5 C 178.833,67.5 179.167,67.5 179.5,67.5C 179.315,68.1701 178.981,68.1701 178.5,67.5 Z"/></g>
<g><path style="opacity:0.004" fill="#000000" d="M 177.5,68.5 C 177.833,68.5 178.167,68.5 178.5,68.5C 178.315,69.1701 177.981,69.1701 177.5,68.5 Z"/></g>
<g><path style="opacity:0.004" fill="#000000" d="M 176.5,69.5 C 176.833,69.5 177.167,69.5 177.5,69.5C 177.315,70.1701 176.981,70.1701 176.5,69.5 Z"/></g>
<g><path style="opacity:0.004" fill="#000000" d="M 175.5,70.5 C 175.833,70.5 176.167,70.5 176.5,70.5C 176.315,71.1701 175.981,71.1701 175.5,70.5 Z"/></g>
<g><path style="opacity:0.004" fill="#000000" d="M 138.5,72.5 C 137.833,73.1667 137.833,73.1667 138.5,72.5 Z"/></g>
<g><path style="opacity:0.008" fill="#000000" d="M 173.5,72.5 C 174.833,73.1667 174.833,73.1667 173.5,72.5 Z"/></g>
<g><path style="opacity:0.004" fill="#000000" d="M 171.5,74.5 C 171.5,74.1667 171.5,73.8333 171.5,73.5C 172.167,73.5 172.833,73.5 173.5,73.5C 173.158,74.3382 172.492,74.6716 171.5,74.5 Z"/></g>
<g><path style="opacity:0.004" fill="#000000" d="M 141.5,74.5 C 140.833,75.1667 140.833,75.1667 141.5,74.5 Z"/></g>
<g><path style="opacity:0.008" fill="#000000" d="M 170.5,74.5 C 170.833,74.5 171.167,74.5 171.5,74.5C 171.315,75.1701 170.981,75.1701 170.5,74.5 Z"/></g>
<g><path style="opacity:0.004" fill="#000000" d="M 168.5,75.5 C 169.833,76.1667 169.833,76.1667 168.5,75.5 Z"/></g>
<g><path style="opacity:0.004" fill="#000000" d="M 134.5,84.5 C 133.833,83.1667 133.833,83.1667 134.5,84.5 Z"/></g>
<g><path style="opacity:1" fill="#765ea3" d="M 178.5,84.5 C 179.514,85.6737 180.847,86.3404 182.5,86.5C 182.842,87.3382 183.508,87.6716 184.5,87.5C 184.842,88.3382 185.508,88.6716 186.5,88.5C 186.973,89.9063 187.973,90.573 189.5,90.5C 190.436,91.9744 191.77,92.9744 193.5,93.5C 193.833,94.5 194.5,95.1667 195.5,95.5C 197.142,96.803 198.809,98.1363 200.5,99.5C 200.427,101.027 201.094,102.027 202.5,102.5C 203.167,103.833 204.167,104.833 205.5,105.5C 205.427,107.027 206.094,108.027 207.5,108.5C 208.079,111.331 209.412,113.664 211.5,115.5C 213.229,120.731 214.896,126.398 216.5,132.5C 216.818,133.647 217.484,134.481 218.5,135C 217.898,139.586 216.898,144.086 215.5,148.5C 214.833,148.5 214.5,148.833 214.5,149.5C 213.833,149.5 213.5,149.833 213.5,150.5C 212.833,150.5 212.5,150.833 212.5,151.5C 211.833,151.5 211.5,151.833 211.5,152.5C 210.167,152.833 210.167,153.167 211.5,153.5C 211.5,153.833 211.5,154.167 211.5,154.5C 210.833,154.5 210.5,154.833 210.5,155.5C 205.414,156.155 200.414,155.489 195.5,153.5C 195.158,152.662 194.492,152.328 193.5,152.5C 191.838,149.998 189.838,147.831 187.5,146C 187.756,140.955 187.922,135.788 188,130.5C 187.392,132.154 186.892,133.821 186.5,135.5C 185.833,135.5 185.5,135.833 185.5,136.5C 184.662,136.842 184.328,137.508 184.5,138.5C 183.833,138.5 183.5,138.833 183.5,139.5C 182.662,139.842 182.328,140.508 182.5,141.5C 181.833,141.5 181.5,141.833 181.5,142.5C 180.833,142.5 180.5,142.833 180.5,143.5C 179.833,143.5 179.5,143.833 179.5,144.5C 178.833,144.5 178.5,144.833 178.5,145.5C 177.508,145.328 176.842,145.662 176.5,146.5C 175.833,146.5 175.5,146.833 175.5,147.5C 174.833,148.167 174.167,148.833 173.5,149.5C 173.167,148.167 172.833,148.167 172.5,149.5C 171.508,149.328 170.842,149.662 170.5,150.5C 169.508,150.328 168.842,150.662 168.5,151.5C 159.712,154.318 151.045,153.985 142.5,150.5C 141.035,149.263 139.368,148.263 137.5,147.5C 133.833,144.5 130.5,141.167 127.5,137.5C 127.585,136.005 126.919,135.005 125.5,134.5C 124.701,138.501 124.035,142.501 123.5,146.5C 122.662,146.842 122.328,147.508 122.5,148.5C 121.833,148.5 121.5,148.833 121.5,149.5C 120.833,149.5 120.5,149.833 120.5,150.5C 119.833,150.5 119.5,150.833 119.5,151.5C 118.833,151.5 118.5,151.833 118.5,152.5C 117.25,152.577 116.417,153.244 116,154.5C 112.248,154.744 108.415,154.411 104.5,153.5C 103.035,152.263 101.368,151.263 99.5,150.5C 99.0679,149.29 98.4013,148.29 97.5,147.5C 97.0113,146.005 96.3446,144.671 95.5,143.5C 95.5941,136.365 96.5941,129.365 98.5,122.5C 99.9313,121.22 100.598,119.553 100.5,117.5C 104.581,110.032 109.914,102.865 116.5,96C 115.66,94.3335 116.16,94.1669 118,95.5C 120.628,92.7895 123.461,90.4562 126.5,88.5C 128.153,88.3404 129.486,87.6737 130.5,86.5C 132.153,86.3404 133.486,85.6737 134.5,84.5C 141.661,82.3333 148.995,81 156.5,80.5C 164.005,81 171.339,82.3333 178.5,84.5 Z M 123.5,128.5 C 124.703,129.943 125.203,131.609 125,133.5C 123.731,132.095 123.231,130.429 123.5,128.5 Z"/></g>
<g><path style="opacity:0.004" fill="#000000" d="M 178.5,83.5 C 179.833,84.1667 179.833,84.1667 178.5,83.5 Z"/></g>
<g><path style="opacity:0.004" fill="#000000" d="M 130.5,86.5 C 129.833,85.1667 129.833,85.1667 130.5,86.5 Z"/></g>
<g><path style="opacity:0.004" fill="#000000" d="M 182.5,85.5 C 183.833,86.1667 183.833,86.1667 182.5,85.5 Z"/></g>
<g><path style="opacity:0.004" fill="#000000" d="M 184.5,86.5 C 185.833,87.1667 185.833,87.1667 184.5,86.5 Z"/></g>
<g><path style="opacity:0.004" fill="#000000" d="M 126.5,88.5 C 125.833,87.1667 125.833,87.1667 126.5,88.5 Z"/></g>
<g><path style="opacity:0.004" fill="#000000" d="M 186.5,87.5 C 187.833,88.1667 187.833,88.1667 186.5,87.5 Z"/></g>
<g><path style="opacity:0.004" fill="#000000" d="M 189.5,89.5 C 188.833,88.1667 188.833,88.1667 189.5,89.5 Z"/></g>
<g><path style="opacity:0.004" fill="#000000" d="M 189.5,89.5 C 190.833,90.1667 190.833,90.1667 189.5,89.5 Z"/></g>
<g><path style="opacity:0.004" fill="#000000" d="M 191.5,90.5 C 192.833,91.1667 192.833,91.1667 191.5,90.5 Z"/></g>
<g><path style="opacity:0.004" fill="#000000" d="M 193.5,92.5 C 194.833,93.1667 194.833,93.1667 193.5,92.5 Z"/></g>
<g><path style="opacity:0.004" fill="#000000" d="M 195.5,95.5 C 195.511,92.9991 196.178,92.8324 197.5,95C 196.906,95.4643 196.239,95.631 195.5,95.5 Z"/></g>
<g><path style="opacity:0.004" fill="#000000" d="M 201.5,99.5 C 200.833,98.1667 200.833,98.1667 201.5,99.5 Z"/></g>
<g><path style="opacity:0.004" fill="#000000" d="M 201.5,99.5 C 202.833,100.167 202.833,100.167 201.5,99.5 Z"/></g>
<g><path style="opacity:0.004" fill="#000000" d="M 202.5,102.5 C 202.897,101.475 203.563,101.308 204.5,102C 203.906,102.464 203.239,102.631 202.5,102.5 Z"/></g>
<g><path style="opacity:0.004" fill="#000000" d="M 205.5,104.5 C 206.833,105.167 206.833,105.167 205.5,104.5 Z"/></g>
<g><path style="opacity:0.004" fill="#000000" d="M 208.5,108.5 C 207.833,107.167 207.833,107.167 208.5,108.5 Z"/></g>
<g><path style="opacity:0.004" fill="#000000" d="M 208.5,108.5 C 209.833,109.167 209.833,109.167 208.5,108.5 Z"/></g>
<g><path style="opacity:0.004" fill="#000000" d="M 209.5,110.5 C 210.833,111.167 210.833,111.167 209.5,110.5 Z"/></g>
<g><path style="opacity:0.004" fill="#000000" d="M 211.5,114.5 C 212.833,115.167 212.833,115.167 211.5,114.5 Z"/></g>
<g><path style="opacity:0.004" fill="#000000" d="M 100.5,117.5 C 99.8333,116.167 99.8333,116.167 100.5,117.5 Z"/></g>
<g><path style="opacity:0.004" fill="#000000" d="M 98.5,122.5 C 97.8333,121.167 97.8333,121.167 98.5,122.5 Z"/></g>
<g><path style="opacity:0.008" fill="#000000" d="M 186.5,135.5 C 187.833,136.167 187.833,136.167 186.5,135.5 Z"/></g>
<g><path style="opacity:0.004" fill="#000000" d="M 126.5,137.5 C 125.833,136.167 125.833,136.167 126.5,137.5 Z"/></g>
<g><path style="opacity:0.004" fill="#000000" d="M 185.5,136.5 C 185.833,136.5 186.167,136.5 186.5,136.5C 186.672,137.492 186.338,138.158 185.5,138.5C 185.5,137.833 185.5,137.167 185.5,136.5 Z"/></g>
<g><path style="opacity:0.004" fill="#000000" d="M 126.5,137.5 C 126.833,137.5 127.167,137.5 127.5,137.5C 127.315,138.17 126.981,138.17 126.5,137.5 Z"/></g>
<g><path style="opacity:0.008" fill="#000000" d="M 184.5,138.5 C 184.833,138.5 185.167,138.5 185.5,138.5C 185.315,139.17 184.981,139.17 184.5,138.5 Z"/></g>
<g><path style="opacity:0.004" fill="#000000" d="M 127.5,139.5 C 128.833,140.167 128.833,140.167 127.5,139.5 Z"/></g>
<g><path style="opacity:0.004" fill="#000000" d="M 183.5,139.5 C 183.833,139.5 184.167,139.5 184.5,139.5C 184.672,140.492 184.338,141.158 183.5,141.5C 183.5,140.833 183.5,140.167 183.5,139.5 Z"/></g>
<g><path style="opacity:0.004" fill="#000000" d="M 182.5,141.5 C 182.833,141.5 183.167,141.5 183.5,141.5C 183.315,142.17 182.981,142.17 182.5,141.5 Z"/></g>
<g><path style="opacity:0.008" fill="#000000" d="M 181.5,142.5 C 181.833,142.5 182.167,142.5 182.5,142.5C 182.315,143.17 181.981,143.17 181.5,142.5 Z"/></g>
<g><path style="opacity:0.004" fill="#000000" d="M 95.5,143.5 C 94.8333,144.167 94.8333,144.167 95.5,143.5 Z"/></g>
<g><path style="opacity:0.008" fill="#000000" d="M 180.5,143.5 C 180.833,143.5 181.167,143.5 181.5,143.5C 181.315,144.17 180.981,144.17 180.5,143.5 Z"/></g>
<g><path style="opacity:0.012" fill="#000000" d="M 179.5,144.5 C 179.833,144.5 180.167,144.5 180.5,144.5C 180.315,145.17 179.981,145.17 179.5,144.5 Z"/></g>
<g><path style="opacity:0.008" fill="#000000" d="M 178.5,145.5 C 178.833,145.5 179.167,145.5 179.5,145.5C 179.315,146.17 178.981,146.17 178.5,145.5 Z"/></g>
<g><path style="opacity:0.004" fill="#000000" d="M 123.5,146.5 C 124.833,147.167 124.833,147.167 123.5,146.5 Z"/></g>
<g><path style="opacity:0.004" fill="#000000" d="M 176.5,147.5 C 176.5,147.167 176.5,146.833 176.5,146.5C 177.167,146.5 177.833,146.5 178.5,146.5C 178.158,147.338 177.492,147.672 176.5,147.5 Z"/></g>
<g><path style="opacity:0.004" fill="#000000" d="M 97.5,147.5 C 96.8333,148.167 96.8333,148.167 97.5,147.5 Z"/></g>
<g><path style="opacity:0.004" fill="#000000" d="M 137.5,147.5 C 137.103,148.525 136.437,148.692 135.5,148C 136.094,147.536 136.761,147.369 137.5,147.5 Z"/></g>
<g><path style="opacity:0.004" fill="#000000" d="M 175.5,147.5 C 175.833,147.5 176.167,147.5 176.5,147.5C 176.315,148.17 175.981,148.17 175.5,147.5 Z"/></g>
<g><path style="opacity:0.004" fill="#000000" d="M 122.5,148.5 C 123.833,149.167 123.833,149.167 122.5,148.5 Z"/></g>
<g><path style="opacity:0.004" fill="#000000" d="M 215.5,148.5 C 216.833,149.167 216.833,149.167 215.5,148.5 Z"/></g>
<g><path style="opacity:0.012" fill="#000000" d="M 121.5,149.5 C 121.833,149.5 122.167,149.5 122.5,149.5C 122.315,150.17 121.981,150.17 121.5,149.5 Z"/></g>
<g><path style="opacity:0.004" fill="#000000" d="M 172.5,149.5 C 172.833,149.5 173.167,149.5 173.5,149.5C 173.315,150.17 172.981,150.17 172.5,149.5 Z"/></g>
<g><path style="opacity:0.004" fill="#000000" d="M 214.5,149.5 C 214.833,149.5 215.167,149.5 215.5,149.5C 215.315,150.17 214.981,150.17 214.5,149.5 Z"/></g>
<g><path style="opacity:0.004" fill="#000000" d="M 84.5,151.5 C 83.8333,150.167 83.8333,150.167 84.5,151.5 Z"/></g>
<g><path style="opacity:0.004" fill="#000000" d="M 120.5,150.5 C 120.833,150.5 121.167,150.5 121.5,150.5C 121.315,151.17 120.981,151.17 120.5,150.5 Z"/></g>
<g><path style="opacity:0.004" fill="#000000" d="M 142.5,150.5 C 141.833,151.167 141.833,151.167 142.5,150.5 Z"/></g>
<g><path style="opacity:0.004" fill="#000000" d="M 170.5,150.5 C 171.833,151.167 171.833,151.167 170.5,150.5 Z"/></g>
<g><path style="opacity:0.005" fill="#000000" d="M 213.5,150.5 C 213.833,150.5 214.167,150.5 214.5,150.5C 214.5,151.833 213.833,152.5 212.5,152.5C 212.5,152.167 212.5,151.833 212.5,151.5C 213.167,151.5 213.5,151.167 213.5,150.5 Z"/></g>
<g><path style="opacity:0.004" fill="#000000" d="M 81.5,151.5 C 82.8333,152.167 82.8333,152.167 81.5,151.5 Z"/></g>
<g><path style="opacity:0.004" fill="#000000" d="M 119.5,151.5 C 119.833,151.5 120.167,151.5 120.5,151.5C 120.315,152.17 119.981,152.17 119.5,151.5 Z"/></g>
<g><path style="opacity:0.004" fill="#000000" d="M 168.5,151.5 C 169.833,152.167 169.833,152.167 168.5,151.5 Z"/></g>
<g><path style="opacity:1" fill="#6a759e" d="M 99.5,150.5 C 100.757,153.427 102.757,155.761 105.5,157.5C 105.328,158.492 105.662,159.158 106.5,159.5C 107.833,163.5 107.833,167.5 106.5,171.5C 105.662,171.842 105.328,172.508 105.5,173.5C 102.721,174.617 102.388,175.783 104.5,177C 103.956,177.717 103.289,178.217 102.5,178.5C 101.833,177.167 101.167,177.167 100.5,178.5C 99.8333,178.5 99.5,178.833 99.5,179.5C 96.0772,180.363 92.7439,181.53 89.5,183C 95.8347,182.591 102.168,183.091 108.5,184.5C 108.842,185.338 109.508,185.672 110.5,185.5C 112.635,187.071 114.968,188.404 117.5,189.5C 119.46,191.156 121.46,192.823 123.5,194.5C 123.738,196.404 124.738,197.738 126.5,198.5C 126.328,199.492 126.662,200.158 127.5,200.5C 127.328,201.492 127.662,202.158 128.5,202.5C 128.328,203.492 128.662,204.158 129.5,204.5C 132.364,214.696 132.031,224.363 128.5,233.5C 127.599,234.29 126.932,235.29 126.5,236.5C 125.662,236.842 125.328,237.508 125.5,238.5C 124.167,239.167 123.167,240.167 122.5,241.5C 124.153,241.34 125.486,240.674 126.5,239.5C 127.167,239.5 127.5,239.167 127.5,238.5C 128.167,238.5 128.5,238.167 128.5,237.5C 133.498,233.599 138.832,232.933 144.5,235.5C 145.107,235.376 145.44,235.043 145.5,234.5C 147.379,234.393 147.712,234.893 146.5,236C 147.044,236.717 147.711,237.217 148.5,237.5C 149.167,238.833 150.167,239.833 151.5,240.5C 151.328,241.492 151.662,242.158 152.5,242.5C 153.36,246.434 153.693,250.434 153.5,254.5C 152.167,254.833 152.167,255.167 153.5,255.5C 151.771,256.236 150.771,257.57 150.5,259.5C 149.833,259.5 149.5,259.833 149.5,260.5C 148.167,260.833 148.167,261.167 149.5,261.5C 149.158,262.338 148.492,262.672 147.5,262.5C 147.167,261.167 146.833,261.167 146.5,262.5C 145.167,262.833 145.167,263.167 146.5,263.5C 144.096,263.161 141.762,263.827 139.5,265.5C 123.723,269.77 108.057,269.437 92.5,264.5C 92.1583,263.662 91.4916,263.328 90.5,263.5C 88.8185,261.992 86.8185,260.992 84.5,260.5C 84.0269,259.094 83.0269,258.427 81.5,258.5C 81.0269,257.094 80.0269,256.427 78.5,256.5C 77.4154,254.413 75.7488,253.08 73.5,252.5C 71.823,250.46 70.1563,248.46 68.5,246.5C 67.396,244.611 66.0627,242.945 64.5,241.5C 63.0834,238.331 61.4168,235.331 59.5,232.5C 59.2041,230.597 58.5375,228.93 57.5,227.5C 57.405,225.214 56.7384,223.214 55.5,221.5C 54.1667,211.833 54.1667,202.167 55.5,192.5C 56.3058,191.003 56.9724,189.336 57.5,187.5C 57.2907,186.914 56.9574,186.414 56.5,186C 58.9171,184.856 59.5838,183.19 58.5,181C 60.816,179.293 62.1493,177.46 62.5,175.5C 63.9538,174.48 64.2871,173.313 63.5,172C 66.3034,170.549 68.3034,168.382 69.5,165.5C 72.1667,162.167 75.1667,159.167 78.5,156.5C 79.1667,156.5 79.5,156.167 79.5,155.5C 81.3885,154.396 83.0552,153.063 84.5,151.5C 89.5878,150.596 94.5878,150.263 99.5,150.5 Z M 128.5,233.5 C 129.833,234.5 129.833,235.5 128.5,236.5C 127.833,236.5 127.167,236.5 126.5,236.5C 126.932,235.29 127.599,234.29 128.5,233.5 Z M 125.5,238.5 C 125.5,239.167 125.833,239.5 126.5,239.5C 125.486,240.674 124.153,241.34 122.5,241.5C 123.167,240.167 124.167,239.167 125.5,238.5 Z"/></g>
<g><path style="opacity:0.004" fill="#000000" d="M 118.5,152.5 C 118.833,152.5 119.167,152.5 119.5,152.5C 119.315,153.17 118.981,153.17 118.5,152.5 Z"/></g>
<g><path style="opacity:0.008" fill="#000000" d="M 193.5,152.5 C 192.833,153.167 192.833,153.167 193.5,152.5 Z"/></g>
<g><path style="opacity:0.004" fill="#000000" d="M 211.5,152.5 C 211.833,152.5 212.167,152.5 212.5,152.5C 212.315,153.17 211.981,153.17 211.5,152.5 Z"/></g>
<g><path style="opacity:0.004" fill="#000000" d="M 104.5,153.5 C 103.833,154.167 103.833,154.167 104.5,153.5 Z"/></g>
<g><path style="opacity:0.004" fill="#000000" d="M 195.5,153.5 C 194.833,154.167 194.833,154.167 195.5,153.5 Z"/></g>
<g><path style="opacity:0.004" fill="#000000" d="M 79.5,155.5 C 78.8333,155.5 78.5,155.833 78.5,156.5C 77.9569,156.44 77.6236,156.107 77.5,155.5C 78.2565,154.227 78.9232,154.227 79.5,155.5 Z"/></g>
<g><path style="opacity:0.004" fill="#000000" d="M 225.5,154.5 C 226.833,155.167 226.833,155.167 225.5,154.5 Z"/></g>
<g><path style="opacity:1" fill="#808390" d="M 225.5,155.5 C 226.795,156.488 228.128,157.488 229.5,158.5C 231.5,161.167 233.833,163.5 236.5,165.5C 238.843,168.207 241.177,170.874 243.5,173.5C 243.328,174.492 243.662,175.158 244.5,175.5C 244.328,176.492 244.662,177.158 245.5,177.5C 245.427,179.027 246.094,180.027 247.5,180.5C 247.263,181.791 247.596,182.791 248.5,183.5C 248.624,185.582 249.624,187.082 251.5,188C 250.978,188.561 250.645,189.228 250.5,190C 253.607,200.003 254.274,210.17 252.5,220.5C 251.388,222.599 250.721,224.933 250.5,227.5C 249.596,228.209 249.263,229.209 249.5,230.5C 247.659,232.849 246.326,235.515 245.5,238.5C 244.026,239.436 243.026,240.77 242.5,242.5C 241.662,242.842 241.328,243.508 241.5,244.5C 240.833,244.5 240.5,244.833 240.5,245.5C 239.833,245.5 239.5,245.833 239.5,246.5C 238.833,246.5 238.5,246.833 238.5,247.5C 237.833,247.5 237.5,247.833 237.5,248.5C 235.833,249.5 234.5,250.833 233.5,252.5C 232.833,252.5 232.5,252.833 232.5,253.5C 231.833,253.5 231.5,253.833 231.5,254.5C 230.833,254.5 230.5,254.833 230.5,255.5C 229.508,255.328 228.842,255.662 228.5,256.5C 227.833,256.5 227.5,256.833 227.5,257.5C 226.167,257.833 226.167,258.167 227.5,258.5C 227.158,259.338 226.492,259.672 225.5,259.5C 225.167,258.167 224.833,258.167 224.5,259.5C 223.508,259.328 222.842,259.662 222.5,260.5C 219.515,261.326 216.849,262.659 214.5,264.5C 197.535,268.985 181.201,268.319 165.5,262.5C 160.141,260.425 156.808,255.591 155.5,248C 155.943,246.175 156.277,244.342 156.5,242.5C 157.488,241.205 158.488,239.872 159.5,238.5C 160.167,238.5 160.5,238.167 160.5,237.5C 161.167,237.5 161.5,237.167 161.5,236.5C 162.167,236.5 162.5,236.167 162.5,235.5C 169.114,232.328 175.28,232.994 181,237.5C 181.399,237.272 181.565,236.938 181.5,236.5C 183.557,236.043 183.557,235.043 181.5,233.5C 177.555,223.088 177.555,213.088 181.5,203.5C 182.401,202.71 183.068,201.71 183.5,200.5C 184.803,198.858 186.136,197.191 187.5,195.5C 189.858,193.471 192.192,191.471 194.5,189.5C 201.897,185.482 210.23,183.982 219.5,185C 216.673,183.336 213.673,182.17 210.5,181.5C 210.027,180.094 209.027,179.427 207.5,179.5C 207.068,178.29 206.401,177.29 205.5,176.5C 204.031,172.463 203.031,168.297 202.5,164C 204.632,163.082 205.299,161.749 204.5,160C 206.684,158.637 208.684,157.137 210.5,155.5C 211.167,155.5 211.5,155.167 211.5,154.5C 216.327,152.953 220.993,153.286 225.5,155.5 Z M 181.5,233.5 C 183.557,235.043 183.557,236.043 181.5,236.5C 180.167,235.5 180.167,234.5 181.5,233.5 Z M 187.5,241.5 C 185.326,241.25 183.659,240.25 182.5,238.5C 184.712,237.953 186.379,238.953 187.5,241.5 Z"/></g>
<g><path style="opacity:0.004" fill="#000000" d="M 105.5,156.5 C 106.833,157.167 106.833,157.167 105.5,156.5 Z"/></g>
<g><path style="opacity:0.004" fill="#000000" d="M 229.5,157.5 C 230.833,158.167 230.833,158.167 229.5,157.5 Z"/></g>
<g><path style="opacity:0.004" fill="#000000" d="M 106.5,158.5 C 107.833,159.167 107.833,159.167 106.5,158.5 Z"/></g>
<g><path style="opacity:0.004" fill="#000000" d="M 232.5,159.5 C 231.833,158.167 231.833,158.167 232.5,159.5 Z"/></g>
<g><path style="opacity:0.004" fill="#000000" d="M 232.5,159.5 C 233.167,159.5 233.5,159.833 233.5,160.5C 233.167,160.167 232.833,159.833 232.5,159.5 Z"/></g>
<g><path style="opacity:0.004" fill="#000000" d="M 233.5,160.5 C 234.167,160.5 234.5,160.833 234.5,161.5C 234.167,161.167 233.833,160.833 233.5,160.5 Z"/></g>
<g><path style="opacity:0.004" fill="#000000" d="M 234.5,161.5 C 235.167,161.5 235.5,161.833 235.5,162.5C 235.167,162.167 234.833,161.833 234.5,161.5 Z"/></g>
<g><path style="opacity:0.004" fill="#000000" d="M 69.5,162.5 C 70.8333,163.167 70.8333,163.167 69.5,162.5 Z"/></g>
<g><path style="opacity:0.004" fill="#000000" d="M 235.5,162.5 C 236.167,162.5 236.5,162.833 236.5,163.5C 236.167,163.167 235.833,162.833 235.5,162.5 Z"/></g>
<g><path style="opacity:0.004" fill="#000000" d="M 236.5,163.5 C 237.5,163.833 238.167,164.5 238.5,165.5C 237.833,165.5 237.167,165.5 236.5,165.5C 236.5,164.833 236.5,164.167 236.5,163.5 Z"/></g>
<g><path style="opacity:0.004" fill="#000000" d="M 69.5,165.5 C 68.8333,164.167 68.8333,164.167 69.5,165.5 Z"/></g>
<g><path style="opacity:0.004" fill="#000000" d="M 238.5,165.5 C 239.833,166.167 239.833,166.167 238.5,165.5 Z"/></g>
<g><path style="opacity:0.004" fill="#000000" d="M 106.5,171.5 C 107.833,172.167 107.833,172.167 106.5,171.5 Z"/></g>
<g><path style="opacity:0.004" fill="#000000" d="M 243.5,172.5 C 244.833,173.167 244.833,173.167 243.5,172.5 Z"/></g>
<g><path style="opacity:0.004" fill="#000000" d="M 105.5,173.5 C 106.833,174.167 106.833,174.167 105.5,173.5 Z"/></g>
<g><path style="opacity:0.004" fill="#000000" d="M 62.5,175.5 C 61.8333,174.167 61.8333,174.167 62.5,175.5 Z"/></g>
<g><path style="opacity:0.004" fill="#000000" d="M 244.5,174.5 C 245.833,175.167 245.833,175.167 244.5,174.5 Z"/></g>
<g><path style="opacity:0.004" fill="#000000" d="M 205.5,176.5 C 204.833,177.167 204.833,177.167 205.5,176.5 Z"/></g>
<g><path style="opacity:0.004" fill="#000000" d="M 246.5,177.5 C 245.833,176.167 245.833,176.167 246.5,177.5 Z"/></g>
<g><path style="opacity:0.004" fill="#000000" d="M 246.5,177.5 C 247.833,178.167 247.833,178.167 246.5,177.5 Z"/></g>
<g><path style="opacity:0.004" fill="#000000" d="M 100.5,179.5 C 100.5,179.167 100.5,178.833 100.5,178.5C 101.167,178.5 101.833,178.5 102.5,178.5C 102.158,179.338 101.492,179.672 100.5,179.5 Z"/></g>
<g><path style="opacity:0.008" fill="#000000" d="M 99.5,179.5 C 99.8333,179.5 100.167,179.5 100.5,179.5C 100.315,180.17 99.9813,180.17 99.5,179.5 Z"/></g>
<g><path style="opacity:0.004" fill="#000000" d="M 207.5,179.5 C 206.833,180.167 206.833,180.167 207.5,179.5 Z"/></g>
<g><path style="opacity:0.004" fill="#000000" d="M 247.5,179.5 C 248.833,180.167 248.833,180.167 247.5,179.5 Z"/></g>
<g><path style="opacity:0.004" fill="#000000" d="M 210.5,181.5 C 209.833,182.167 209.833,182.167 210.5,181.5 Z"/></g>
<g><path style="opacity:0.004" fill="#000000" d="M 248.5,182.5 C 249.833,183.167 249.833,183.167 248.5,182.5 Z"/></g>
<g><path style="opacity:0.004" fill="#000000" d="M 108.5,183.5 C 109.833,184.167 109.833,184.167 108.5,183.5 Z"/></g>
<g><path style="opacity:0.004" fill="#000000" d="M 110.5,184.5 C 111.833,185.167 111.833,185.167 110.5,184.5 Z"/></g>
<g><path style="opacity:0.004" fill="#000000" d="M 113.5,185.5 C 114.833,186.167 114.833,186.167 113.5,185.5 Z"/></g>
<g><path style="opacity:0.004" fill="#000000" d="M 115.5,186.5 C 116.833,187.167 116.833,187.167 115.5,186.5 Z"/></g>
<g><path style="opacity:0.004" fill="#000000" d="M 117.5,188.5 C 118.833,189.167 118.833,189.167 117.5,188.5 Z"/></g>
<g><path style="opacity:0.004" fill="#000000" d="M 194.5,189.5 C 193.833,188.167 193.833,188.167 194.5,189.5 Z"/></g>
<g><path style="opacity:0.004" fill="#000000" d="M 119.5,189.5 C 120.833,190.167 120.833,190.167 119.5,189.5 Z"/></g>
<g><path style="opacity:0.004" fill="#000000" d="M 55.5,192.5 C 54.8333,191.167 54.8333,191.167 55.5,192.5 Z"/></g>
<g><path style="opacity:0.008" fill="#000000" d="M 123.5,193.5 C 124.833,194.167 124.833,194.167 123.5,193.5 Z"/></g>
<g><path style="opacity:0.004" fill="#000000" d="M 187.5,195.5 C 184.999,195.489 184.832,194.822 187,193.5C 187.464,194.094 187.631,194.761 187.5,195.5 Z"/></g>
<g><path style="opacity:0.004" fill="#000000" d="M 126.5,197.5 C 127.833,198.167 127.833,198.167 126.5,197.5 Z"/></g>
<g><path style="opacity:0.004" fill="#000000" d="M 127.5,199.5 C 128.833,200.167 128.833,200.167 127.5,199.5 Z"/></g>
<g><path style="opacity:0.004" fill="#000000" d="M 183.5,200.5 C 182.833,199.167 182.833,199.167 183.5,200.5 Z"/></g>
<g><path style="opacity:0.004" fill="#000000" d="M 128.5,201.5 C 129.833,202.167 129.833,202.167 128.5,201.5 Z"/></g>
<g><path style="opacity:0.008" fill="#000000" d="M 181.5,203.5 C 180.833,202.167 180.833,202.167 181.5,203.5 Z"/></g>
<g><path style="opacity:0.004" fill="#000000" d="M 129.5,203.5 C 130.833,204.167 130.833,204.167 129.5,203.5 Z"/></g>
<g><path style="opacity:0.004" fill="#000000" d="M 252.5,220.5 C 253.833,221.167 253.833,221.167 252.5,220.5 Z"/></g>
<g><path style="opacity:0.004" fill="#000000" d="M 55.5,221.5 C 54.8333,222.167 54.8333,222.167 55.5,221.5 Z"/></g>
<g><path style="opacity:0.004" fill="#000000" d="M 282.5,225.5 C 283.833,226.167 283.833,226.167 282.5,225.5 Z"/></g>
<g><path style="opacity:0.004" fill="#000000" d="M 258.5,226.5 C 259.833,227.167 259.833,227.167 258.5,226.5 Z"/></g>
<g><path style="opacity:1" fill="#6b759e" d="M 49.5,228.5 C 50.2905,229.401 51.2905,230.068 52.5,230.5C 63.0534,240.17 66.0534,251.836 61.5,265.5C 59.9172,267.663 58.5839,269.996 57.5,272.5C 56.8333,272.5 56.5,272.833 56.5,273.5C 55.8333,273.5 55.5,273.833 55.5,274.5C 54.8333,274.5 54.5,274.833 54.5,275.5C 53.8333,275.5 53.5,275.833 53.5,276.5C 52.8333,276.5 52.5,276.833 52.5,277.5C 51.5084,277.328 50.8417,277.662 50.5,278.5C 49.8333,278.5 49.5,278.833 49.5,279.5C 48.5084,279.328 47.8417,279.662 47.5,280.5C 43.2761,281.879 38.9428,282.879 34.5,283.5C 30.8204,282.831 27.1537,282.164 23.5,281.5C 22.4863,280.326 21.153,279.66 19.5,279.5C 15.1245,276.126 11.4578,272.126 8.5,267.5C 4.89809,258.993 4.56476,250.326 7.5,241.5C 8.40128,240.71 9.06795,239.71 9.5,238.5C 10.4013,237.71 11.0679,236.71 11.5,235.5C 12.5,235.167 13.1667,234.5 13.5,233.5C 14.1667,233.5 14.5,233.167 14.5,232.5C 15.1667,232.5 15.5,232.167 15.5,231.5C 16.1667,231.5 16.5,231.167 16.5,230.5C 27.0933,223.408 38.0933,222.741 49.5,228.5 Z"/></g>
<g><path style="opacity:0.004" fill="#000000" d="M 49.5,227.5 C 50.8333,228.167 50.8333,228.167 49.5,227.5 Z"/></g>
<g><path style="opacity:0.004" fill="#000000" d="M 57.5,227.5 C 56.8333,228.167 56.8333,228.167 57.5,227.5 Z"/></g>
<g><path style="opacity:0.004" fill="#000000" d="M 250.5,227.5 C 251.833,228.167 251.833,228.167 250.5,227.5 Z"/></g>
<g><path style="opacity:0.004" fill="#000000" d="M 258.5,227.5 C 258.5,227.833 258.5,228.167 258.5,228.5C 257.83,228.019 257.83,227.685 258.5,227.5 Z"/></g>
<g><path style="opacity:1" fill="#818491" d="M 282.5,226.5 C 285.131,228.153 287.797,229.819 290.5,231.5C 292.862,234.192 295.196,236.859 297.5,239.5C 297.328,240.492 297.662,241.158 298.5,241.5C 298.595,243.786 299.262,245.786 300.5,247.5C 300.5,251.5 300.5,255.5 300.5,259.5C 299.262,261.214 298.595,263.214 298.5,265.5C 297.662,265.842 297.328,266.508 297.5,267.5C 296.833,267.5 296.5,267.833 296.5,268.5C 295.662,268.842 295.328,269.508 295.5,270.5C 294.833,270.5 294.5,270.833 294.5,271.5C 293.833,271.5 293.5,271.833 293.5,272.5C 292.833,272.5 292.5,272.833 292.5,273.5C 291.5,273.833 290.833,274.5 290.5,275.5C 289.833,275.5 289.5,275.833 289.5,276.5C 287.632,277.263 285.965,278.263 284.5,279.5C 275.694,282.394 267.027,282.061 258.5,278.5C 258.158,277.662 257.492,277.328 256.5,277.5C 254.833,275.167 252.833,273.167 250.5,271.5C 249.488,270.128 248.488,268.795 247.5,267.5C 247.672,266.508 247.338,265.842 246.5,265.5C 246.204,263.597 245.537,261.93 244.5,260.5C 244.5,255.833 244.5,251.167 244.5,246.5C 245.537,245.07 246.204,243.403 246.5,241.5C 247.338,241.158 247.672,240.492 247.5,239.5C 249.471,237.192 251.471,234.858 253.5,232.5C 255.191,231.136 256.858,229.803 258.5,228.5C 266.255,225.374 274.255,224.707 282.5,226.5 Z"/></g>
<g><path style="opacity:0.004" fill="#000000" d="M 288.5,228.5 C 289.833,229.167 289.833,229.167 288.5,228.5 Z"/></g>
<g><path style="opacity:0.004" fill="#000000" d="M 16.5,230.5 C 15.8333,230.5 15.5,230.833 15.5,231.5C 15.1667,231.5 14.8333,231.5 14.5,231.5C 14.7107,229.576 15.3774,229.243 16.5,230.5 Z"/></g>
<g><path style="opacity:0.004" fill="#000000" d="M 52.5,229.5 C 53.8333,230.167 53.8333,230.167 52.5,229.5 Z"/></g>
<g><path style="opacity:0.004" fill="#000000" d="M 178.5,229.5 C 179.833,230.167 179.833,230.167 178.5,229.5 Z"/></g>
<g><path style="opacity:0.004" fill="#000000" d="M 55.5,231.5 C 54.8333,230.167 54.8333,230.167 55.5,231.5 Z"/></g>
<g><path style="opacity:0.004" fill="#000000" d="M 249.5,230.5 C 250.833,231.167 250.833,231.167 249.5,230.5 Z"/></g>
<g><path style="opacity:0.004" fill="#000000" d="M 290.5,230.5 C 291.833,231.167 291.833,231.167 290.5,230.5 Z"/></g>
<g><path style="opacity:0.004" fill="#000000" d="M 14.5,231.5 C 14.5,231.833 14.5,232.167 14.5,232.5C 13.8333,232.5 13.5,232.833 13.5,233.5C 11.2071,232.699 11.5404,232.032 14.5,231.5 Z"/></g>
<g><path style="opacity:0.004" fill="#000000" d="M 55.5,231.5 C 56.8333,232.167 56.8333,232.167 55.5,231.5 Z"/></g>
<g><path style="opacity:0.006" fill="#000000" d="M 251.5,232.5 C 252.167,231.167 252.833,231.167 253.5,232.5C 252.833,232.5 252.167,232.5 251.5,232.5 Z"/></g>
<g><path style="opacity:0.004" fill="#000000" d="M 292.5,231.5 C 293.833,232.167 293.833,232.167 292.5,231.5 Z"/></g>
<g><path style="opacity:0.004" fill="#000000" d="M 59.5,232.5 C 58.8333,233.167 58.8333,233.167 59.5,232.5 Z"/></g>
<g><path style="opacity:0.004" fill="#000000" d="M 251.5,232.5 C 250.833,233.167 250.833,233.167 251.5,232.5 Z"/></g>
<g><path style="opacity:0.004" fill="#000000" d="M 145.5,234.5 C 144.833,233.167 144.833,233.167 145.5,234.5 Z"/></g>
<g><path style="opacity:0.004" fill="#000000" d="M 250.5,233.5 C 249.833,234.167 249.833,234.167 250.5,233.5 Z"/></g>
<g><path style="opacity:0.004" fill="#000000" d="M 11.5,235.5 C 10.8333,234.167 10.8333,234.167 11.5,235.5 Z"/></g>
<g><path style="opacity:0.004" fill="#000000" d="M 162.5,235.5 C 161.833,235.5 161.5,235.833 161.5,236.5C 161.167,236.5 160.833,236.5 160.5,236.5C 160.711,234.576 161.377,234.243 162.5,235.5 Z"/></g>
<g><path style="opacity:0.004" fill="#000000" d="M 9.5,238.5 C 8.47498,238.103 8.30831,237.437 9,236.5C 9.46434,237.094 9.63101,237.761 9.5,238.5 Z"/></g>
<g><path style="opacity:0.005" fill="#000000" d="M 126.5,236.5 C 127.167,236.5 127.833,236.5 128.5,236.5C 128.5,236.833 128.5,237.167 128.5,237.5C 127.833,237.5 127.5,237.833 127.5,238.5C 126.662,238.158 126.328,237.492 126.5,236.5 Z"/></g>
<g><path style="opacity:0.004" fill="#000000" d="M 148.5,236.5 C 149.833,237.167 149.833,237.167 148.5,236.5 Z"/></g>
<g><path style="opacity:0.004" fill="#000000" d="M 160.5,236.5 C 160.5,236.833 160.5,237.167 160.5,237.5C 159.833,237.5 159.5,237.833 159.5,238.5C 158.243,237.377 158.576,236.711 160.5,236.5 Z"/></g>
<g><path style="opacity:0.004" fill="#000000" d="M 247.5,239.5 C 246.508,239.672 245.842,239.338 245.5,238.5C 246.925,236.969 247.591,237.302 247.5,239.5 Z"/></g>
<g><path style="opacity:0.008" fill="#000000" d="M 297.5,238.5 C 298.833,239.167 298.833,239.167 297.5,238.5 Z"/></g>
<g><path style="opacity:0.008" fill="#000000" d="M 151.5,239.5 C 152.833,240.167 152.833,240.167 151.5,239.5 Z"/></g>
<g><path style="opacity:0.004" fill="#000000" d="M 7.5,241.5 C 6.83333,240.167 6.83333,240.167 7.5,241.5 Z"/></g>
<g><path style="opacity:0.004" fill="#000000" d="M 63.5,241.5 C 62.8333,240.167 62.8333,240.167 63.5,241.5 Z"/></g>
<g><path style="opacity:0.004" fill="#000000" d="M 246.5,241.5 C 245.761,241.631 245.094,241.464 244.5,241C 245.437,240.308 246.103,240.475 246.5,241.5 Z"/></g>
<g><path style="opacity:0.004" fill="#000000" d="M 298.5,240.5 C 299.833,241.167 299.833,241.167 298.5,240.5 Z"/></g>
<g><path style="opacity:0.004" fill="#000000" d="M 63.5,241.5 C 63.8333,241.5 64.1667,241.5 64.5,241.5C 64.3147,242.17 63.9813,242.17 63.5,241.5 Z"/></g>
<g><path style="opacity:0.004" fill="#000000" d="M 153.5,242.5 C 152.833,241.167 152.833,241.167 153.5,242.5 Z"/></g>
<g><path style="opacity:0.004" fill="#000000" d="M 156.5,242.5 C 155.833,241.167 155.833,241.167 156.5,242.5 Z"/></g>
<g><path style="opacity:0.004" fill="#000000" d="M 63.5,242.5 C 62.8333,243.167 62.8333,243.167 63.5,242.5 Z"/></g>
<g><path style="opacity:0.004" fill="#000000" d="M 153.5,242.5 C 154.833,243.167 154.833,243.167 153.5,242.5 Z"/></g>
<g><path style="opacity:0.004" fill="#000000" d="M 242.5,242.5 C 243.833,243.167 243.833,243.833 242.5,244.5C 242.5,243.833 242.5,243.167 242.5,242.5 Z"/></g>
<g><path style="opacity:0.004" fill="#000000" d="M 64.5,243.5 C 65.8333,244.167 65.8333,244.167 64.5,243.5 Z"/></g>
<g><path style="opacity:0.004" fill="#000000" d="M 241.5,244.5 C 241.833,244.5 242.167,244.5 242.5,244.5C 242.315,245.17 241.981,245.17 241.5,244.5 Z"/></g>
<g><path style="opacity:0.008" fill="#000000" d="M 240.5,245.5 C 240.833,245.5 241.167,245.5 241.5,245.5C 241.315,246.17 240.981,246.17 240.5,245.5 Z"/></g>
<g><path style="opacity:0.004" fill="#000000" d="M 244.5,246.5 C 243.833,245.167 243.833,245.167 244.5,246.5 Z"/></g>
<g><path style="opacity:0.004" fill="#000000" d="M 68.5,246.5 C 68.631,247.239 68.4643,247.906 68,248.5C 67.3083,247.563 67.475,246.897 68.5,246.5 Z"/></g>
<g><path style="opacity:0.004" fill="#000000" d="M 239.5,246.5 C 239.833,246.5 240.167,246.5 240.5,246.5C 240.315,247.17 239.981,247.17 239.5,246.5 Z"/></g>
<g><path style="opacity:0.004" fill="#000000" d="M 300.5,246.5 C 301.833,247.167 301.833,247.167 300.5,246.5 Z"/></g>
<g><path style="opacity:0.008" fill="#000000" d="M 238.5,247.5 C 238.833,247.5 239.167,247.5 239.5,247.5C 239.315,248.17 238.981,248.17 238.5,247.5 Z"/></g>
<g><path style="opacity:0.004" fill="#000000" d="M 237.5,248.5 C 237.833,248.5 238.167,248.5 238.5,248.5C 238.315,249.17 237.981,249.17 237.5,248.5 Z"/></g>
<g><path style="opacity:0.004" fill="#000000" d="M 73.5,252.5 C 73.5,252.833 73.5,253.167 73.5,253.5C 72.8299,253.019 72.8299,252.685 73.5,252.5 Z"/></g>
<g><path style="opacity:0.004" fill="#000000" d="M 233.5,252.5 C 234.833,253.167 234.833,253.167 233.5,252.5 Z"/></g>
<g><path style="opacity:0.004" fill="#000000" d="M 73.5,253.5 C 74.8333,254.167 74.8333,254.167 73.5,253.5 Z"/></g>
<g><path style="opacity:0.008" fill="#000000" d="M 232.5,253.5 C 232.833,253.5 233.167,253.5 233.5,253.5C 233.315,254.17 232.981,254.17 232.5,253.5 Z"/></g>
<g><path style="opacity:0.004" fill="#000000" d="M 153.5,254.5 C 154.833,255.167 154.833,255.167 153.5,254.5 Z"/></g>
<g><path style="opacity:0.004" fill="#000000" d="M 231.5,254.5 C 231.833,254.5 232.167,254.5 232.5,254.5C 232.315,255.17 231.981,255.17 231.5,254.5 Z"/></g>
<g><path style="opacity:0.004" fill="#000000" d="M 230.5,255.5 C 230.833,255.5 231.167,255.5 231.5,255.5C 231.315,256.17 230.981,256.17 230.5,255.5 Z"/></g>
<g><path style="opacity:0.004" fill="#000000" d="M 78.5,256.5 C 77.8333,257.167 77.8333,257.167 78.5,256.5 Z"/></g>
<g><path style="opacity:0.004" fill="#000000" d="M 228.5,257.5 C 228.5,257.167 228.5,256.833 228.5,256.5C 229.167,256.5 229.833,256.5 230.5,256.5C 230.158,257.338 229.492,257.672 228.5,257.5 Z"/></g>
<g><path style="opacity:0.004" fill="#000000" d="M 227.5,257.5 C 227.833,257.5 228.167,257.5 228.5,257.5C 228.315,258.17 227.981,258.17 227.5,257.5 Z"/></g>
<g><path style="opacity:0.004" fill="#000000" d="M 81.5,258.5 C 81.5,258.833 81.5,259.167 81.5,259.5C 80.8299,259.019 80.8299,258.685 81.5,258.5 Z"/></g>
<g><path style="opacity:0.004" fill="#000000" d="M 151.5,258.5 C 152.833,259.167 152.833,259.167 151.5,258.5 Z"/></g>
<g><path style="opacity:0.004" fill="#000000" d="M 81.5,259.5 C 82.8333,260.167 82.8333,260.167 81.5,259.5 Z"/></g>
<g><path style="opacity:0.004" fill="#000000" d="M 150.5,259.5 C 150.833,259.5 151.167,259.5 151.5,259.5C 151.315,260.17 150.981,260.17 150.5,259.5 Z"/></g>
<g><path style="opacity:0.004" fill="#000000" d="M 224.5,259.5 C 224.833,259.5 225.167,259.5 225.5,259.5C 225.315,260.17 224.981,260.17 224.5,259.5 Z"/></g>
<g><path style="opacity:0.004" fill="#000000" d="M 300.5,259.5 C 301.833,260.167 301.833,260.167 300.5,259.5 Z"/></g>
<g><path style="opacity:0.004" fill="#000000" d="M 84.5,260.5 C 83.8333,261.167 83.8333,261.167 84.5,260.5 Z"/></g>
<g><path style="opacity:0.004" fill="#000000" d="M 149.5,260.5 C 149.833,260.5 150.167,260.5 150.5,260.5C 150.315,261.17 149.981,261.17 149.5,260.5 Z"/></g>
<g><path style="opacity:0.004" fill="#000000" d="M 222.5,260.5 C 223.833,261.167 223.833,261.167 222.5,260.5 Z"/></g>
<g><path style="opacity:0.004" fill="#000000" d="M 244.5,260.5 C 243.833,261.167 243.833,261.167 244.5,260.5 Z"/></g>
<g><path style="opacity:0.004" fill="#000000" d="M 222.5,261.5 C 221.833,262.167 221.833,262.167 222.5,261.5 Z"/></g>
<g><path style="opacity:0.004" fill="#000000" d="M 146.5,262.5 C 146.833,262.5 147.167,262.5 147.5,262.5C 147.315,263.17 146.981,263.17 146.5,262.5 Z"/></g>
<g><path style="opacity:0.004" fill="#000000" d="M 165.5,262.5 C 164.833,263.167 164.833,263.167 165.5,262.5 Z"/></g>
<g><path style="opacity:0.004" fill="#000000" d="M 90.5,263.5 C 90.1034,264.525 89.4368,264.692 88.5,264C 89.0944,263.536 89.7611,263.369 90.5,263.5 Z"/></g>
<g><path style="opacity:0.004" fill="#000000" d="M 92.5,264.5 C 91.8333,265.167 91.8333,265.167 92.5,264.5 Z"/></g>
<g><path style="opacity:0.004" fill="#000000" d="M 214.5,264.5 C 215.833,265.167 215.833,265.167 214.5,264.5 Z"/></g>
<g><path style="opacity:0.004" fill="#000000" d="M 61.5,265.5 C 62.8333,266.167 62.8333,266.167 61.5,265.5 Z"/></g>
<g><path style="opacity:0.004" fill="#000000" d="M 139.5,265.5 C 140.833,266.167 140.833,266.167 139.5,265.5 Z"/></g>
<g><path style="opacity:0.004" fill="#000000" d="M 246.5,265.5 C 245.833,266.167 245.833,266.167 246.5,265.5 Z"/></g>
<g><path style="opacity:0.004" fill="#000000" d="M 298.5,265.5 C 299.833,266.167 299.833,266.167 298.5,265.5 Z"/></g>
<g><path style="opacity:0.004" fill="#000000" d="M 8.5,267.5 C 7.83333,268.167 7.83333,268.167 8.5,267.5 Z"/></g>
<g><path style="opacity:0.004" fill="#000000" d="M 247.5,267.5 C 246.833,268.167 246.833,268.167 247.5,267.5 Z"/></g>
<g><path style="opacity:0.008" fill="#000000" d="M 297.5,267.5 C 298.833,268.167 298.833,268.167 297.5,267.5 Z"/></g>
<g><path style="opacity:0.004" fill="#000000" d="M 60.5,268.5 C 61.8333,269.167 61.8333,269.167 60.5,268.5 Z"/></g>
<g><path style="opacity:0.004" fill="#000000" d="M 296.5,268.5 C 296.833,268.5 297.167,268.5 297.5,268.5C 297.672,269.492 297.338,270.158 296.5,270.5C 296.5,269.833 296.5,269.167 296.5,268.5 Z"/></g>
<g><path style="opacity:0.008" fill="#000000" d="M 295.5,270.5 C 295.833,270.5 296.167,270.5 296.5,270.5C 296.315,271.17 295.981,271.17 295.5,270.5 Z"/></g>
<g><path style="opacity:0.004" fill="#000000" d="M 58.5,271.5 C 59.8333,272.167 59.8333,272.167 58.5,271.5 Z"/></g>
<g><path style="opacity:0.004" fill="#000000" d="M 250.5,271.5 C 250.5,272.167 250.5,272.833 250.5,273.5C 249.167,272.833 249.167,272.167 250.5,271.5 Z"/></g>
<g><path style="opacity:0.004" fill="#000000" d="M 294.5,271.5 C 294.833,271.5 295.167,271.5 295.5,271.5C 295.315,272.17 294.981,272.17 294.5,271.5 Z"/></g>
<g><path style="opacity:0.004" fill="#000000" d="M 57.5,272.5 C 57.8333,272.5 58.1667,272.5 58.5,272.5C 58.3147,273.17 57.9813,273.17 57.5,272.5 Z"/></g>
<g><path style="opacity:0.004" fill="#000000" d="M 293.5,272.5 C 293.833,272.5 294.167,272.5 294.5,272.5C 294.315,273.17 293.981,273.17 293.5,272.5 Z"/></g>
<g><path style="opacity:0.004" fill="#000000" d="M 56.5,273.5 C 56.8333,273.5 57.1667,273.5 57.5,273.5C 57.3147,274.17 56.9813,274.17 56.5,273.5 Z"/></g>
<g><path style="opacity:0.004" fill="#000000" d="M 250.5,273.5 C 251.167,273.5 251.5,273.833 251.5,274.5C 251.167,274.167 250.833,273.833 250.5,273.5 Z"/></g>
<g><path style="opacity:0.004" fill="#000000" d="M 292.5,273.5 C 292.833,273.5 293.167,273.5 293.5,273.5C 293.315,274.17 292.981,274.17 292.5,273.5 Z"/></g>
<g><path style="opacity:0.004" fill="#000000" d="M 55.5,274.5 C 55.8333,274.5 56.1667,274.5 56.5,274.5C 56.3147,275.17 55.9813,275.17 55.5,274.5 Z"/></g>
<g><path style="opacity:0.004" fill="#000000" d="M 251.5,274.5 C 252.167,274.5 252.5,274.833 252.5,275.5C 252.167,275.167 251.833,274.833 251.5,274.5 Z"/></g>
<g><path style="opacity:0.004" fill="#000000" d="M 54.5,275.5 C 54.8333,275.5 55.1667,275.5 55.5,275.5C 55.3147,276.17 54.9813,276.17 54.5,275.5 Z"/></g>
<g><path style="opacity:0.004" fill="#000000" d="M 252.5,275.5 C 253.833,276.167 253.833,276.167 252.5,275.5 Z"/></g>
<g><path style="opacity:0.008" fill="#000000" d="M 290.5,275.5 C 291.833,276.167 291.833,276.167 290.5,275.5 Z"/></g>
<g><path style="opacity:0.004" fill="#000000" d="M 53.5,276.5 C 53.8333,276.5 54.1667,276.5 54.5,276.5C 54.3147,277.17 53.9813,277.17 53.5,276.5 Z"/></g>
<g><path style="opacity:0.004" fill="#000000" d="M 289.5,276.5 C 289.833,276.5 290.167,276.5 290.5,276.5C 290.315,277.17 289.981,277.17 289.5,276.5 Z"/></g>
<g><path style="opacity:0.004" fill="#000000" d="M 52.5,277.5 C 52.8333,277.5 53.1667,277.5 53.5,277.5C 53.3147,278.17 52.9813,278.17 52.5,277.5 Z"/></g>
<g><path style="opacity:0.008" fill="#000000" d="M 256.5,277.5 C 255.833,278.167 255.833,278.167 256.5,277.5 Z"/></g>
<g><path style="opacity:0.004" fill="#000000" d="M 50.5,278.5 C 51.8333,279.167 51.8333,279.167 50.5,278.5 Z"/></g>
<g><path style="opacity:0.004" fill="#000000" d="M 258.5,278.5 C 257.833,279.167 257.833,279.167 258.5,278.5 Z"/></g>
<g><path style="opacity:0.008" fill="#000000" d="M 19.5,279.5 C 18.8333,280.167 18.8333,280.167 19.5,279.5 Z"/></g>
<g><path style="opacity:0.004" fill="#000000" d="M 49.5,279.5 C 49.8333,279.5 50.1667,279.5 50.5,279.5C 50.3147,280.17 49.9813,280.17 49.5,279.5 Z"/></g>
<g><path style="opacity:0.004" fill="#000000" d="M 284.5,279.5 C 285.833,280.167 285.833,280.167 284.5,279.5 Z"/></g>
<g><path style="opacity:0.004" fill="#000000" d="M 47.5,280.5 C 48.8333,281.167 48.8333,281.167 47.5,280.5 Z"/></g>
<g><path style="opacity:0.004" fill="#000000" d="M 23.5,281.5 C 22.8333,282.167 22.8333,282.167 23.5,281.5 Z"/></g>
</svg>
